<svg width="21" height="21" viewBox="0 0 21 21" fill="none" xmlns="http://www.w3.org/2000/svg">
<path d="M5.25391 2.73108C5.25391 1.62651 6.14934 0.731079 7.25391 0.731079H13.2539C14.3585 0.731079 15.2539 1.62651 15.2539 2.73108V4.73108H17.2436C17.2498 4.73102 17.256 4.73102 17.2622 4.73108H19.2539C19.8062 4.73108 20.2539 5.17879 20.2539 5.73108C20.2539 6.28336 19.8062 6.73108 19.2539 6.73108H18.185L17.3177 18.8736C17.2429 19.9202 16.3721 20.7311 15.3228 20.7311H5.18503C4.13575 20.7311 3.26487 19.9202 3.19011 18.8736L2.32279 6.73108H1.25391C0.701621 6.73108 0.253906 6.28336 0.253906 5.73108C0.253906 5.17879 0.701621 4.73108 1.25391 4.73108H3.24565C3.25185 4.73102 3.25805 4.73102 3.26423 4.73108H5.25391V2.73108ZM7.25391 4.73108H13.2539V2.73108H7.25391V4.73108ZM4.32788 6.73108L5.18503 18.7311H15.3228L16.1799 6.73108H4.32788ZM8.25391 8.73108C8.80619 8.73108 9.25391 9.17879 9.25391 9.73108V15.7311C9.25391 16.2834 8.80619 16.7311 8.25391 16.7311C7.70162 16.7311 7.25391 16.2834 7.25391 15.7311V9.73108C7.25391 9.17879 7.70162 8.73108 8.25391 8.73108ZM12.2539 8.73108C12.8062 8.73108 13.2539 9.17879 13.2539 9.73108V15.7311C13.2539 16.2834 12.8062 16.7311 12.2539 16.7311C11.7016 16.7311 11.2539 16.2834 11.2539 15.7311V9.73108C11.2539 9.17879 11.7016 8.73108 12.2539 8.73108Z" fill="white"/>
</svg>
