<svg width="40" height="42" viewBox="0 0 40 42" fill="" xmlns="http://www.w3.org/2000/svg">
<path d="M3.14174 5.61938C3.14174 4.35171 3.14174 3.2047 3.14174 2.05925C3.14957 1.17392 3.32821 0.984314 4.18847 0.984314C9.43569 0.984314 14.6834 0.984314 19.9317 0.984314C20.8609 0.984314 21.0113 1.14101 21.016 2.09215C21.016 3.2329 21.016 4.37522 21.016 5.61781C21.7729 5.61781 22.4451 5.63348 23.1158 5.61781C23.8475 5.59431 24.1312 5.91084 24.128 6.65201C24.1077 10.8828 24.1186 15.1136 24.1186 19.3444V20.225C25.0917 20.0103 26.0115 19.7549 26.9501 19.6139C32.7103 18.7897 38.2432 23.0346 38.9891 28.8245C39.2053 30.4011 39.0707 32.006 38.5951 33.5247C38.1195 35.0433 37.3145 36.4382 36.2376 37.6099C35.1607 38.7815 33.8384 39.701 32.3652 40.3027C30.8919 40.9044 29.304 41.1734 27.7148 41.0907C26.0663 41.0005 24.4594 40.5393 23.0139 39.7415C22.6265 39.5401 22.197 39.4327 21.7604 39.4281C14.9472 39.4093 8.13355 39.4046 1.31936 39.414C0.131608 39.414 0.0657959 39.3466 0.0657959 38.1918C0.0657959 27.7454 0.0657959 17.3026 0.0657959 6.86355C0.0657959 5.70243 0.139443 5.63505 1.31936 5.63035L3.14174 5.61938ZM6.72694 38.0852C6.72694 35.2428 6.72694 32.4786 6.72694 29.7145C6.72694 28.7743 6.89461 28.5988 7.80344 28.5957C10.5195 28.5957 13.2356 28.5957 15.9516 28.5957C16.8589 28.5957 17.0579 28.7979 17.0595 29.6926C17.0595 32.1997 17.0595 34.7069 17.0595 37.214V38.0429H20.7293C17.5437 34.6363 16.7696 30.7801 18.1642 26.402H15.9861C15.527 26.402 15.0271 26.402 15.0209 25.7752C15.0146 25.1484 15.4909 25.1108 15.961 25.1139C16.6928 25.1139 17.4246 25.0873 18.1548 25.1233C18.6249 25.1468 18.9022 25.0027 19.1529 24.5812C19.9232 23.2687 20.9981 22.161 22.2869 21.3517C22.7272 21.0759 22.8431 20.7625 22.8416 20.272C22.8243 16.0961 22.8322 11.9186 22.8322 7.73634V6.97323H1.43218V38.0852H6.72694ZM37.7684 30.3335C37.7709 28.4584 37.2177 26.6246 36.1789 25.0636C35.14 23.5025 33.6619 22.2843 31.9313 21.5626C30.2006 20.8409 28.2949 20.6481 26.4548 21.0085C24.6147 21.369 22.9226 22.2665 21.5921 23.5878C20.2616 24.9091 19.3524 26.595 18.9792 28.4326C18.6061 30.2702 18.7857 32.1771 19.4954 33.9127C20.2051 35.6484 21.4131 37.1348 22.9668 38.1845C24.5206 39.2341 26.3506 39.7999 28.2256 39.8104C33.442 39.8606 37.7512 35.5812 37.7684 30.3335V30.3335ZM8.07766 29.9543V38.0617H15.6915V29.9543H8.07766ZM19.7045 2.3225H4.51283V5.56297H19.7123L19.7045 2.3225Z" fill="#2F78BB"/>
<path d="M11.6206 21.4676C11.0737 21.4676 10.5143 21.5397 9.98625 21.4378C9.7089 21.3845 9.48796 21.0288 9.24194 20.811C9.48796 20.5932 9.72457 20.2015 9.98312 20.1843C11.0998 20.1145 12.2197 20.1145 13.3364 20.1843C13.595 20.2015 13.8316 20.5932 14.0776 20.811C13.8316 21.0304 13.6075 21.3892 13.3317 21.4378C12.7786 21.5381 12.1925 21.4676 11.6206 21.4676Z" fill="#2F78BB"/>
<path d="M5.88548 21.4692C5.34018 21.4692 4.78861 21.5412 4.25428 21.441C3.97379 21.3877 3.75128 21.0367 3.50214 20.8142C3.74502 20.5917 3.97222 20.1874 4.23234 20.178C5.34693 20.1082 6.46478 20.1082 7.57937 20.178C7.83478 20.1937 8.06826 20.5791 8.3127 20.7954C8.07453 21.0179 7.86299 21.3845 7.59504 21.4331C7.0419 21.5318 6.45742 21.4629 5.88548 21.4629V21.4692Z" fill="#2F78BB"/>
<path d="M17.4403 20.1529C17.9871 20.1529 18.5465 20.0793 19.0715 20.1811C19.3504 20.2344 19.5713 20.5886 19.8173 20.8079C19.5729 21.0273 19.3379 21.4222 19.0809 21.4347C17.9663 21.5052 16.8484 21.5052 15.7338 21.4347C15.4784 21.419 15.2481 21.0273 15.0068 20.8079C15.2465 20.5886 15.4612 20.2266 15.7323 20.1811C16.2854 20.084 16.8699 20.1529 17.4403 20.1529Z" fill="#2F78BB"/>
<path d="M11.6613 16.4972C11.0894 16.4972 10.5033 16.5677 9.95021 16.4659C9.68539 16.4173 9.48012 16.0397 9.25134 15.8125C9.48482 15.615 9.71046 15.2593 9.95491 15.2468C11.0974 15.1855 12.2424 15.1844 13.385 15.2437C13.6263 15.2562 13.8551 15.6166 14.0791 15.8172C13.8441 16.0428 13.6373 16.4142 13.3724 16.4628C12.813 16.5693 12.227 16.4972 11.6613 16.4972Z" fill="#2F78BB"/>
<path d="M11.6143 26.4004C11.069 26.4004 10.5174 26.4693 9.98149 26.3706C9.70727 26.3205 9.48946 25.971 9.24658 25.7564C9.49259 25.5433 9.72921 25.1641 9.98932 25.1468C11.106 25.0787 12.2259 25.0787 13.3426 25.1468C13.598 25.1625 13.8299 25.5495 14.0728 25.7658C13.8268 25.9773 13.6027 26.3236 13.3269 26.3706C12.7707 26.4678 12.1878 26.4004 11.6143 26.4004Z" fill="#2F78BB"/>
<path d="M5.93721 11.5362C5.39191 11.5362 4.84034 11.5362 4.30131 11.5362C3.85942 11.5362 3.45515 11.3607 3.54446 10.8875C3.59147 10.6368 3.99575 10.2858 4.25586 10.2701C5.36993 10.2004 6.48726 10.2004 7.60132 10.2701C7.85047 10.2858 8.07141 10.6838 8.30959 10.9063C8.06514 11.1147 7.8395 11.4532 7.56842 11.5033C7.04035 11.6036 6.49035 11.5362 5.93721 11.5362Z" fill="#2F78BB"/>
<path d="M11.5986 11.5393C11.0784 11.5393 10.5409 11.6161 10.0442 11.5095C9.74644 11.4453 9.50983 11.0927 9.24658 10.8702C9.49886 10.6618 9.74174 10.2873 10.0066 10.2716C11.0965 10.1996 12.19 10.1996 13.2799 10.2716C13.5589 10.292 13.8096 10.6916 14.0744 10.9157C13.7955 11.1241 13.5416 11.4547 13.2282 11.5111C12.7033 11.6114 12.1439 11.5393 11.5986 11.5393Z" fill="#2F78BB"/>
<path d="M17.34 11.5331C16.7947 11.5331 16.2431 11.6036 15.7103 11.5033C15.4471 11.4532 15.2403 11.0897 15.0115 10.8766C15.234 10.6697 15.4471 10.2952 15.6806 10.2811C16.8209 10.2153 17.9641 10.2153 19.1044 10.2811C19.3535 10.2968 19.5745 10.7026 19.8142 10.9298C19.5604 11.1335 19.33 11.4689 19.0495 11.5143C18.4933 11.6083 17.9119 11.5425 17.34 11.5425V11.5331Z" fill="#2F78BB"/>
<path d="M17.4011 16.4972C16.8291 16.4972 16.2462 16.5677 15.6931 16.4659C15.433 16.4189 15.2355 16.0397 15.0099 15.8093C15.2387 15.6135 15.4612 15.2593 15.6993 15.2468C16.8403 15.1865 17.9837 15.1865 19.1247 15.2468C19.3629 15.2593 19.5823 15.6182 19.8111 15.8172C19.5791 16.0444 19.3739 16.4173 19.1091 16.4659C18.5559 16.5709 17.973 16.4972 17.4011 16.4972Z" fill="#2F78BB"/>
<path d="M5.95441 16.4972C5.38403 16.4972 4.80112 16.5662 4.24642 16.469C3.97377 16.422 3.75283 16.0694 3.50995 15.8548C3.75126 15.6417 3.98004 15.2609 4.23545 15.2452C5.35166 15.1779 6.4709 15.1774 7.58718 15.2436C7.84103 15.2593 8.07137 15.6369 8.31268 15.8485C8.0745 16.0647 7.85983 16.4157 7.59031 16.4753C7.05911 16.5709 6.49971 16.4972 5.95441 16.4972Z" fill="#2F78BB"/>
<path d="M5.86352 26.4004C5.31822 26.4004 4.76665 26.4693 4.23389 26.3722C3.9628 26.3205 3.74656 25.9726 3.50525 25.7579C3.75126 25.5448 3.98631 25.1625 4.24329 25.1468C5.3574 25.0787 6.47463 25.0787 7.58875 25.1468C7.83946 25.1625 8.05884 25.5511 8.30641 25.7736C8.06354 25.9851 7.83633 26.3299 7.57308 26.3769C7.02151 26.4662 6.4386 26.4004 5.86352 26.4004Z" fill="#2F78BB"/>
<path fill-rule="evenodd" clip-rule="evenodd" d="M28.3702 23.907C27.7179 23.907 27.1891 24.4358 27.1891 25.0881V29.326H22.9511C22.2988 29.326 21.77 29.8548 21.77 30.5071C21.77 31.1594 22.2988 31.6882 22.9511 31.6882H27.1891V35.9262C27.1891 36.5785 27.7179 37.1073 28.3702 37.1073C29.0225 37.1073 29.5512 36.5785 29.5512 35.9262V31.6882H33.7892C34.4415 31.6882 34.9703 31.1594 34.9703 30.5071C34.9703 29.8548 34.4415 29.326 33.7892 29.326H29.5512V25.0881C29.5512 24.4358 29.0225 23.907 28.3702 23.907Z" fill="#2F78BB"/>
</svg>
