<svg width="36" height="36" viewBox="0 0 36 36" fill="none" xmlns="http://www.w3.org/2000/svg">
<path d="M0.23291 15.815C0.23291 12.0523 0.23291 8.28953 0.23291 4.52679C0.239878 1.93886 1.97353 0.206604 4.56982 0.206604C10.1192 0.206604 15.6695 0.206604 21.2207 0.206604C23.7431 0.206604 25.4809 1.91796 25.4949 4.42924C25.5102 7.30843 25.4949 10.189 25.4949 13.0696C25.4949 13.9685 25.0991 14.4493 24.3897 14.4479C23.6804 14.4465 23.2748 13.9601 23.2665 13.0682C23.2665 10.2587 23.2665 7.44779 23.2665 4.63828C23.2665 3.11646 22.5808 2.44056 21.0534 2.44056H4.67852C3.16646 2.44056 2.46965 3.13736 2.46965 4.65361C2.46965 12.1076 2.46965 19.562 2.46965 27.0168C2.46965 28.4815 3.18179 29.1923 4.64647 29.1937C7.66503 29.1937 10.6836 29.1937 13.7049 29.1937C14.6805 29.1937 15.3215 29.9741 14.8979 30.7043C14.7028 31.0388 14.2011 31.3858 13.8248 31.3914C10.5749 31.443 7.3222 31.4625 4.06952 31.4025C1.9359 31.3677 0.246846 29.5072 0.239878 27.3081C0.23291 23.4799 0.23291 19.6447 0.23291 15.815Z" fill="#2F78BB"/>
<path d="M35.9093 26.2546C35.8957 28.8144 34.8687 31.2645 33.053 33.069C31.2373 34.8735 28.7808 35.8852 26.221 35.883C20.9071 35.8691 16.5535 31.4917 16.5786 26.1891C16.6037 20.8864 20.9754 16.53 26.2823 16.5467C28.8438 16.5654 31.2938 17.5968 33.0974 19.4157C34.9011 21.2345 35.912 23.693 35.9093 26.2546ZM33.6796 26.2392C33.6837 24.769 33.2518 23.3305 32.4385 22.1057C31.6253 20.8809 30.4671 19.9247 29.1105 19.358C27.7538 18.7913 26.2596 18.6395 24.8168 18.9219C23.3739 19.2043 22.0471 19.9081 21.0042 20.9444C19.9613 21.9807 19.249 23.3029 18.9575 24.744C18.6659 26.185 18.8081 27.6802 19.3662 29.0404C19.9242 30.4006 20.873 31.5648 22.0927 32.3859C23.3123 33.207 24.748 33.648 26.2182 33.6532C28.189 33.6536 30.0799 32.8741 31.4779 31.485C32.8759 30.0959 33.6674 28.21 33.6796 26.2392V26.2392Z" fill="#2F78BB"/>
<path d="M12.8562 14.3225C10.6069 14.3225 8.35666 14.3225 6.10552 14.3225C5.21361 14.3225 4.71191 13.9225 4.69797 13.2369C4.68543 12.5261 5.21639 12.0927 6.13478 12.0913C10.6343 12.0913 15.1342 12.0913 19.6347 12.0913C20.2409 12.0913 20.7593 12.2376 20.9739 12.8592C21.1384 13.3372 21.0408 13.8208 20.5907 14.087C20.2872 14.2449 19.9489 14.324 19.6068 14.3169C17.3561 14.3308 15.1068 14.3225 12.8562 14.3225Z" fill="#2F78BB"/>
<path d="M9.88917 20.2746C8.61123 20.2746 7.33468 20.2746 6.05814 20.2746C5.19967 20.2746 4.68265 19.8287 4.69937 19.1319C4.71609 18.4573 5.20943 18.0476 6.04141 18.0462C8.61866 18.0407 11.1959 18.0407 13.7732 18.0462C14.5773 18.0462 15.0985 18.4922 15.1054 19.1514C15.1124 19.8105 14.587 20.2746 13.7899 20.2746C12.4966 20.2844 11.1894 20.2746 9.88917 20.2746Z" fill="#2F78BB"/>
<path d="M9.22869 6.16565C10.2711 6.16565 11.3191 6.1559 12.3546 6.16565C13.1224 6.17401 13.6088 6.60743 13.6088 7.25406C13.6088 7.90069 13.1266 8.38149 12.3769 8.38706C10.2233 8.40565 8.07014 8.40565 5.91748 8.38706C5.1719 8.38706 4.67995 7.88536 4.6925 7.2457C4.70504 6.60603 5.18305 6.17401 5.95789 6.16565C7.05187 6.15729 8.14028 6.16565 9.22869 6.16565Z" fill="#2F78BB"/>
<path d="M25.1493 27.3513C24.1334 27.3513 23.2094 27.3681 22.2869 27.3513C21.5106 27.3318 20.995 26.8064 21.0493 26.1487C21.0995 25.5438 21.5468 25.1425 22.2409 25.1299C23.1662 25.1132 24.0916 25.1299 25.1465 25.1299C25.1465 24.3788 25.1465 23.6722 25.1465 22.9643C25.1465 22.6855 25.1354 22.4068 25.1549 22.1281C25.1967 21.494 25.612 21.062 26.1931 21.0271C26.4871 21.0139 26.7743 21.1173 26.9923 21.3149C27.2103 21.5125 27.3413 21.7883 27.3568 22.0821C27.407 22.8207 27.3763 23.5649 27.3805 24.3119V25.1313C28.3421 25.1313 29.2187 25.1313 30.0939 25.1313C30.9384 25.1313 31.4275 25.5285 31.4526 26.1946C31.4777 26.8608 30.9481 27.3485 30.105 27.3597C29.2284 27.3722 28.3518 27.3597 27.3791 27.3597C27.3791 28.3352 27.3944 29.2592 27.3791 30.1776C27.361 30.9385 26.9067 31.4318 26.2642 31.4318C25.6218 31.4318 25.1744 30.9705 25.1591 30.2598C25.134 29.333 25.1493 28.4035 25.1493 27.3513Z" fill="#2F78BB"/>
</svg>
