<svg width="34" height="34" viewBox="0 0 34 34" fill="none" xmlns="http://www.w3.org/2000/svg">
<path d="M17.4121 11.0892C15.525 11.0892 13.6374 11.0892 11.7491 11.0892C11.598 11.0939 11.4468 11.0826 11.2981 11.0555C11.1331 11.0223 10.9845 10.9333 10.8773 10.8035C10.7701 10.6737 10.7108 10.511 10.7093 10.3427C10.7077 10.1744 10.7641 10.0106 10.8689 9.87892C10.9737 9.74721 11.1206 9.65553 11.285 9.61924C11.4333 9.59071 11.5842 9.57849 11.7351 9.58282C15.5222 9.58282 19.309 9.58282 23.0955 9.58282C23.7744 9.58282 24.1405 9.85364 24.1312 10.3458C24.1218 10.838 23.766 11.0854 23.1039 11.0864L17.4121 11.0892Z" fill="#2F78BB"/>
<path d="M17.3943 14.0571C15.4606 14.0571 13.5266 14.0571 11.5923 14.0571C11.0525 14.0571 10.7434 13.8002 10.7238 13.3576C10.7113 13.1695 10.7716 12.9838 10.8922 12.839C11.0129 12.6942 11.1846 12.6013 11.3719 12.5797C11.4417 12.5725 11.5119 12.57 11.582 12.5722C15.4737 12.5722 19.3648 12.5722 23.2552 12.5722C23.7894 12.5722 24.1302 12.8645 24.1349 13.3109C24.1349 13.733 23.8118 14.0496 23.3355 14.058C22.3456 14.0655 21.3548 14.058 20.3649 14.058L17.3943 14.0571Z" fill="#2F78BB"/>
<path d="M5.50271 27.2313C5.80808 26.9017 6.06302 26.615 6.3301 26.3432C6.86894 25.7959 7.40871 25.2478 7.96435 24.7164C8.03333 24.6488 8.11497 24.5955 8.20458 24.5595C8.29419 24.5236 8.39001 24.5056 8.48656 24.5068C8.58312 24.5079 8.6785 24.5281 8.76724 24.5661C8.85599 24.6042 8.93635 24.6594 9.00374 24.7285C9.13919 24.8608 9.21733 25.041 9.22134 25.2303C9.22536 25.4196 9.15494 25.6029 9.02522 25.7408C8.02412 26.7656 7.0112 27.7789 5.98644 28.7806C5.68761 29.0739 5.28512 29.0608 4.97788 28.7666C4.46426 28.2767 3.96216 27.7739 3.47157 27.2584C3.40162 27.1916 3.34594 27.1113 3.3079 27.0224C3.26986 26.9335 3.25024 26.8378 3.25024 26.741C3.25024 26.6443 3.26986 26.5486 3.3079 26.4597C3.34594 26.3707 3.40162 26.2905 3.47157 26.2237C3.76854 25.922 4.20185 25.9117 4.53336 26.2237C4.84621 26.5244 5.13383 26.8456 5.50271 27.2313Z" fill="#2F78BB"/>
<path d="M5.47834 19.7426L7.7252 17.4882C7.80738 17.406 7.88769 17.321 7.9764 17.2463C8.29485 16.9764 8.70108 16.982 8.98684 17.2556C9.12622 17.3904 9.20775 17.5741 9.2142 17.7679C9.22065 17.9617 9.15151 18.1504 9.02139 18.2941C8.87758 18.4613 8.71322 18.6107 8.55446 18.7676C7.74885 19.577 6.94263 20.3832 6.13577 21.1864C5.68192 21.6421 5.30838 21.6421 4.84705 21.1864C4.41001 20.7512 3.97203 20.3169 3.53965 19.8789C3.18479 19.5166 3.16144 19.0786 3.46961 18.7648C3.77779 18.451 4.2167 18.4622 4.5837 18.819C4.8816 19.1085 5.16363 19.4157 5.47834 19.7426Z" fill="#2F78BB"/>
<path d="M5.47658 12.2894C6.32453 11.4368 7.11083 10.6411 7.90461 9.85289C8.19224 9.56618 8.51535 9.51482 8.8254 9.68012C8.96788 9.75058 9.08202 9.86759 9.14893 10.0118C9.21584 10.156 9.23151 10.3187 9.19333 10.473C9.14794 10.6398 9.06048 10.7923 8.93933 10.9156C7.99115 11.8788 7.03675 12.8354 6.07612 13.7855C5.69511 14.159 5.29168 14.159 4.91067 13.7855C4.44436 13.3279 3.98273 12.865 3.52576 12.3968C3.18397 12.0475 3.16622 11.6207 3.46506 11.3088C3.76389 10.9969 4.22989 11.0025 4.58569 11.349C4.87798 11.6497 5.15907 11.9551 5.47658 12.2894Z" fill="#2F78BB"/>
<path d="M14.4425 18.5304C13.4535 18.5304 12.4636 18.5406 11.4747 18.5304C10.9144 18.522 10.5651 18.0074 10.7733 17.5162C10.8277 17.3727 10.9261 17.2503 11.0545 17.1664C11.1829 17.0824 11.3346 17.0414 11.4877 17.0492C13.4554 17.0492 15.423 17.0492 17.3907 17.0492C17.8492 17.0492 18.1536 17.3574 18.1592 17.7804C18.1648 18.2231 17.8641 18.5276 17.3766 18.5276C16.3989 18.5369 15.4212 18.5276 14.4425 18.5276V18.5304Z" fill="#2F78BB"/>
<path d="M14.478 20.0395C15.4669 20.0395 16.4568 20.0311 17.4458 20.0395C17.5395 20.0372 17.6327 20.0539 17.7198 20.0886C17.8069 20.1232 17.8861 20.1751 17.9527 20.2412C18.0192 20.3072 18.0718 20.386 18.1071 20.4728C18.1424 20.5596 18.1599 20.6527 18.1583 20.7465C18.1672 20.9407 18.0986 21.1306 17.9677 21.2743C17.8367 21.4181 17.654 21.504 17.4598 21.5132C17.4134 21.5155 17.367 21.5155 17.3207 21.5132C15.4 21.5132 13.4791 21.5132 11.5578 21.5132C11.0759 21.5132 10.7622 21.2526 10.7267 20.8445C10.6856 20.3692 10.9928 20.0367 11.5093 20.032C12.4982 20.0227 13.4881 20.032 14.478 20.032V20.0395Z" fill="#2F78BB"/>
<path d="M13.6972 28.9852C12.9641 28.9852 12.231 28.9908 11.498 28.9852C11.1393 28.9805 10.8629 28.8143 10.7509 28.4613C10.6575 28.1466 10.7247 27.8449 11.0086 27.6563C11.163 27.5553 11.3424 27.499 11.5269 27.4938C12.97 27.4807 14.4128 27.4792 15.8553 27.4891C16.3419 27.4891 16.6603 27.7945 16.6715 28.2185C16.6827 28.6425 16.3568 28.9768 15.8572 28.9852C15.14 28.9945 14.4181 28.9852 13.6972 28.9852Z" fill="#2F78BB"/>
<path d="M13.6701 25.9967C12.9715 25.9967 12.2739 25.9967 11.5764 25.9967C11.045 25.9967 10.7191 25.7025 10.7228 25.244C10.7265 24.7854 11.0347 24.5156 11.5577 24.5137C12.9896 24.5087 14.4215 24.5087 15.8534 24.5137C16.3549 24.5137 16.6855 24.8256 16.6799 25.2608C16.6743 25.696 16.3362 25.9939 15.8394 25.9967C15.1138 26.0004 14.391 25.9967 13.6701 25.9967Z" fill="#2F78BB"/>
<path fill-rule="evenodd" clip-rule="evenodd" d="M6.24208 2.66846V3.61822H3.363C1.49996 3.62289 0.265403 4.84161 0.265403 6.70004C0.265403 14.5889 0.262913 22.4764 0.257932 30.3628C0.255614 30.654 0.28695 30.9445 0.351318 31.2285C0.680035 32.6041 1.82961 33.4577 3.34526 33.4577C10.7433 33.4645 18.1413 33.4645 25.5393 33.4577C26.0049 33.453 26.4694 33.4127 26.9289 33.3372C30.8034 32.7255 33.662 28.8051 32.9989 24.9444C32.4452 21.7187 30.5485 19.6493 27.3911 18.7611C27.1623 18.6967 27.1044 18.6033 27.1044 18.3811C27.112 17.592 27.1109 16.7984 27.1099 16.005C27.1095 15.7251 27.1091 15.4453 27.1091 15.1657C27.1147 12.3317 27.1147 9.49889 27.1091 6.66735C27.1063 4.83788 25.8848 3.61822 24.0629 3.61822H21.7553H21.1502V2.77773C21.1492 1.41146 20.3732 0.629798 19.0079 0.629798H14.1518C13.4994 0.629798 12.8474 0.629071 12.1953 0.628345C10.8912 0.626892 9.58716 0.625439 8.27976 0.629798C7.04427 0.637269 6.25329 1.43574 6.24208 2.66846ZM25.6168 18.4408C25.6146 18.4593 25.6123 18.479 25.6103 18.5006L25.6121 18.5034C22.2811 18.7322 19.8241 20.2554 18.6624 23.3988C17.4381 26.7309 18.4196 29.5802 21.0549 31.9354C21.0095 31.9379 20.967 31.9408 20.9264 31.9435C20.8442 31.9491 20.7701 31.9541 20.6963 31.9541C14.9182 31.9498 9.13984 31.9513 3.36114 31.9588C2.78308 31.9597 2.276 31.8206 1.99584 31.2967C1.84898 30.9962 1.77477 30.6654 1.77918 30.331C1.77296 23.7129 1.76985 17.0945 1.76985 10.4757V6.66548C1.77171 5.66436 2.32829 5.10403 3.32565 5.10403C3.71787 5.10199 4.11026 5.10245 4.50268 5.10291C5.00723 5.1035 5.51181 5.10409 6.01609 5.09936C6.2038 5.0975 6.29905 5.14979 6.37096 5.33657C6.68567 6.16959 7.31602 6.60105 8.19478 6.60105C11.8611 6.61412 15.5308 6.61412 19.204 6.60105C20.0809 6.59825 20.7094 6.16959 21.0213 5.3291C21.0829 5.16473 21.1576 5.09936 21.3444 5.09936C21.7636 5.1031 22.183 5.10241 22.6024 5.10171C23.1266 5.10085 23.6509 5.09999 24.1749 5.10777C25.0238 5.11991 25.6243 5.70639 25.6243 6.53381V18.3493C25.6243 18.3782 25.6208 18.4074 25.6168 18.4408ZM29.833 30.2231C28.7172 31.3334 27.2067 31.9559 25.6327 31.9541L25.6345 31.9569C24.8522 31.9594 24.077 31.8074 23.3535 31.5098C22.63 31.2121 21.9723 30.7746 21.4181 30.2224C20.8639 29.6701 20.4242 29.0139 20.1241 28.2914C19.8239 27.5688 19.6693 26.7942 19.6691 26.0118C19.6737 22.6685 22.3175 20.035 25.6719 20.035C28.9413 20.0331 31.5944 22.7236 31.5851 26.0314C31.5789 27.6055 30.9488 29.1129 29.833 30.2231ZM8.29657 2.13522H13.7129C15.481 2.13397 17.2516 2.13522 19.0247 2.13895C19.5617 2.13895 19.6719 2.25102 19.6719 2.80014C19.6719 2.99442 19.6725 3.1886 19.6731 3.38275C19.6744 3.77093 19.6756 4.15898 19.6719 4.54744C19.6672 4.97235 19.5309 5.10777 19.1013 5.10777H8.30684C7.87073 5.10777 7.73625 4.97235 7.73625 4.54744V2.69555C7.73625 2.26876 7.86419 2.13522 8.29657 2.13522ZM24.9469 22.9523C24.9469 22.5651 25.2608 22.2512 25.648 22.2512C26.0352 22.2512 26.3491 22.5651 26.3491 22.9523V25.0865H28.4833C28.8705 25.0865 29.1844 25.4003 29.1844 25.7875C29.1844 26.1747 28.8705 26.4886 28.4833 26.4886H26.3491V28.6229C26.3491 29.0101 26.0352 29.324 25.648 29.324C25.2608 29.324 24.9469 29.0101 24.9469 28.6229V26.4886H22.8127C22.4255 26.4886 22.1116 26.1747 22.1116 25.7875C22.1116 25.4003 22.4255 25.0865 22.8127 25.0865H24.9469V22.9523Z" fill="#2F78BB"/>
</svg>
