<svg width="36" height="34" viewBox="0 0 36 34" fill="none" xmlns="http://www.w3.org/2000/svg">
<path d="M21.6835 29.2649C21.7437 29.2267 21.8022 29.1898 21.8585 29.1546C21.7961 29.1166 21.7424 29.0756 21.6901 29.0356C21.6199 28.982 21.5521 28.9301 21.4686 28.8899M21.6835 29.2649L15.8432 32.3417L15.8439 32.3416L15.8849 32.3379C15.8779 32.2599 15.8723 32.2123 15.8683 32.1781C15.8654 32.1536 15.8634 32.136 15.8621 32.1191C17.7303 31.0379 19.5991 29.9615 21.4686 28.8899M21.6835 29.2649L21.4686 28.8899M21.6835 29.2649L21.3917 29.4511C21.3403 29.4136 21.3027 29.382 21.2792 29.3622C21.2646 29.35 21.2554 29.3422 21.2516 29.3404L21.4686 28.8899M1.96357 9.6142C1.86419 9.5573 1.76422 9.49715 1.65471 9.43125C1.61572 9.40779 1.57552 9.3836 1.53371 9.35857L0.914429 8.98787L1.47912 8.53837C1.48954 8.53007 1.50186 8.51997 1.51576 8.50857C1.58177 8.45445 1.68346 8.37106 1.78732 8.31266C5.96276 5.90635 10.1409 3.50304 14.3216 1.10273L14.3221 1.10244C14.4491 1.02973 14.5985 0.98747 14.7344 0.972545C14.8534 0.959483 15.0609 0.956177 15.251 1.06796C16.9045 2.00593 18.5516 2.95742 20.1967 3.90778C20.3931 4.02127 20.5896 4.13474 20.786 4.24816L20.8141 4.26441L20.8399 4.28417C20.8994 4.32974 20.9554 4.37965 21.0075 4.43351L21.4506 4.89145L20.9005 5.21291C20.77 5.28914 20.6402 5.36527 20.5109 5.44112C20.2145 5.61506 19.9205 5.7875 19.6264 5.95629C15.8157 8.15066 12.0094 10.3454 8.2074 12.5404L7.95741 12.1074L8.20846 12.5398C8.05074 12.6313 7.86015 12.7144 7.63435 12.719C7.40451 12.7236 7.20542 12.6458 7.03132 12.5436L1.96357 9.6142ZM1.96357 9.6142C2.42073 9.87779 2.87772 10.1405 3.33437 10.4031C4.57013 11.1136 5.80344 11.8227 7.03116 12.5435L1.96357 9.6142ZM1.20983 24.5815L0.709836 24.5796C0.70901 24.8013 0.763836 25.0087 0.902158 25.1864C1.02383 25.3427 1.18216 25.4355 1.27963 25.4913C5.43547 27.8805 9.59199 30.2691 13.7492 32.657C13.8276 32.7023 13.927 32.7482 14.0088 32.786C14.0399 32.8004 14.0685 32.8136 14.0924 32.8252L14.8098 33.1717V32.3749V32.1328L14.8098 32.1321L14.3169 17.6455L14.8169 17.6474C14.8169 17.6472 14.8169 17.6469 14.8169 17.6467C14.8176 17.4279 14.7644 17.222 14.6281 17.0442C14.5071 16.8862 14.349 16.7919 14.2485 16.734L14.248 16.7337C10.1027 14.3517 5.95775 11.9691 1.81311 9.58573L1.81051 9.58425C1.73728 9.54273 1.6551 9.50121 1.56794 9.45719C1.52849 9.43726 1.48803 9.41682 1.4469 9.39563L0.717856 9.01991V9.84008L0.717856 10.0932L0.717856 10.0938C0.723205 14.9233 0.720531 19.7522 0.709834 24.5804L1.20983 24.5815ZM1.20983 24.5815C1.20883 24.8506 1.3362 24.9477 1.52876 25.0578C5.62179 27.4109 9.71548 29.7634 13.8098 32.1152L13.9989 17.1673C9.90492 14.8147 5.81123 12.4616 1.71787 10.1077C1.71787 10.1028 1.71786 10.0979 1.71786 10.093V9.84008H1.66685H1.66543H1.21786L1.0874 10.0932L1.08732 10.0934L0.988808 10.2845C1.05304 10.3176 1.10349 10.3431 1.14591 10.3644C1.17272 10.378 1.19633 10.3899 1.21819 10.4011C1.22309 15.1285 1.2203 19.8553 1.20983 24.5815ZM27.9487 8.37647C28.0033 8.40794 28.0464 8.442 28.071 8.46155C28.0796 8.4684 28.087 8.47437 28.0939 8.47993C28.1107 8.49339 28.1244 8.50441 28.1445 8.51959L28.7317 8.96315L28.103 9.34569C28.058 9.37308 28.0118 9.40173 27.9656 9.43044C27.8841 9.48103 27.8023 9.53177 27.7263 9.57596L27.7246 9.57693C23.6061 11.9496 19.4889 14.3237 15.3731 16.699C15.3381 16.7222 15.3019 16.743 15.2647 16.7616L15.2471 16.7717H15.2437C15.1083 16.8354 14.9599 16.8688 14.8088 16.8688C14.6049 16.8688 14.4058 16.8079 14.237 16.694C12.9263 15.9299 11.6118 15.1722 10.2956 14.4137C9.80585 14.1314 9.31582 13.8489 8.82568 13.566L8.82557 13.5659C8.74796 13.5211 8.66439 13.4691 8.57837 13.4156C8.53146 13.3864 8.48383 13.3568 8.43604 13.3276L7.74523 12.9059L8.43149 12.4769C8.47073 12.4523 8.50983 12.4275 8.54867 12.4028C8.64271 12.3431 8.7352 12.2844 8.82441 12.2332C8.82467 12.2331 8.82494 12.2329 8.8252 12.2328L21.1875 5.1066L27.9487 8.37647ZM27.9487 8.37647C27.4486 8.0878 26.9486 7.79962 26.4487 7.51153C25.029 6.69331 23.6106 5.87585 22.1973 5.0499L22.1967 5.0496C21.9902 4.92927 21.7735 4.89189 21.5573 4.94219C21.4045 4.97774 21.2678 5.05897 21.206 5.09572C21.1989 5.09992 21.1928 5.10354 21.1878 5.10645L27.9487 8.37647ZM28.112 9.84808L27.9191 9.51565C23.7297 11.946 19.5365 14.3696 15.3397 16.7866C15.1656 16.8863 15.0208 17.0249 14.9377 17.2211C14.8637 17.3954 14.8609 17.5687 14.8609 17.6745V17.7027V17.7308V17.759V17.7871V17.8153V17.8434V17.8715V17.8997V17.9278V17.956V17.9841V18.0122V18.0404V18.0685V18.0967V18.1248V18.1529V18.1811V18.2092V18.2374V18.2655V18.2936V18.3218V18.3499V18.3781V18.4062V18.4344V18.4625V18.4906V18.5188V18.5469V18.5751V18.6032V18.6313V18.6595V18.6876V18.7158V18.7439V18.772V18.8002V18.8283V18.8565V18.8846V18.9128V18.9409V18.969V18.9972V19.0253V19.0535V19.0816V19.1097V19.1379V19.166V19.1942V19.2223V19.2504V19.2786V19.3067V19.3349V19.363V19.3912V19.4193V19.4474V19.4756V19.5037V19.5319V19.56V19.5881V19.6163V19.6444V19.6726V19.7007V19.7288V19.757V19.7851V19.8133V19.8414V19.8695V19.8977V19.9258V19.954V19.9821V20.0103V20.0384V20.0665V20.0947V20.1228V20.151V20.1791V20.2072V20.2354V20.2635V20.2917V20.3198V20.3479V20.3761V20.4042V20.4324V20.4605V20.4887V20.5168V20.5449V20.5731V20.6012V20.6294V20.6575V20.6856V20.7138V20.7419V20.7701V20.7982V20.8263V20.8545V20.8826V20.9108V20.9389V20.967V20.9952V21.0233V21.0515V21.0796V21.1078V21.1359V21.164V21.1922V21.2203V21.2485V21.2766V21.3047V21.3329V21.361V21.3892V21.4173V21.4454V21.4736V21.5017V21.5299V21.558V21.5862V21.6143V21.6424V21.6706V21.6987V21.7269V21.755V21.7831V21.8113V21.8394V21.8676V21.8957V21.9238V21.952V21.9801V22.0083V22.0364V22.0646V22.0927V22.1208V22.149V22.1771V22.2053V22.2334V22.2615V22.2897V22.3178V22.346V22.3741V22.4022V22.4304V22.4585V22.4867V22.5148V22.5429V22.5711V22.5992V22.6274V22.6555V22.6837V22.7118V22.7399V22.7681V22.7962V22.8244V22.8525V22.8806V22.9088V22.9369V22.9651V22.9932V23.0213V23.0495V23.0776V23.1058V23.1339V23.1621V23.1902V23.2183V23.2465V23.2746V23.3028V23.3309V23.359V23.3872V23.4153V23.4435V23.4716V23.4997V23.5279V23.556V23.5842V23.6123V23.6404V23.6686V23.6967V23.7249V23.753V23.7812V23.8093V23.8374V23.8656V23.8937V23.9219V23.95V23.9781V24.0063V24.0344V24.0626V24.0907V24.1188V24.147V24.1751V24.2033V24.2314V24.2596V24.2877V24.3158V24.344V24.3721V24.4003V24.4284V24.4565V24.4847V24.5128V24.541V24.5691V24.5972V24.6254V24.6535V24.6817V24.7098V24.7379V24.7661V24.7942V24.8224V24.8505V24.8787V24.9068V24.9349V24.9631V24.9912V25.0194V25.0475V25.0756V25.1038V25.1319V25.1601V25.1882V25.2163V25.2445V25.2726V25.3008V25.3289V25.3571V25.3852V25.4133V25.4415V25.4696V25.4978V25.5259V25.554V25.5822V25.6103V25.6385V25.6666V25.6947V25.7229V25.751V25.7792V25.8073V25.8355V25.8636V25.8917V25.9199V25.948V25.9762V26.0043V26.0324V26.0606V26.0887V26.1169V26.145V26.1731V26.2013V26.2294V26.2576V26.2857V26.3138V26.342V26.3701V26.3983V26.4264V26.4546V26.4827V26.5108V26.539V26.5671V26.5953V26.6234V26.6515V26.6797V26.7078V26.736V26.7641V26.7922V26.8204V26.8485V26.8767V26.9048V26.933V26.9611V26.9892V27.0174V27.0455V27.0737V27.1018V27.1299V27.1581V27.1862V27.2144V27.2425V27.2706V27.2988V27.3269V27.3551V27.3832V27.4114V27.4395V27.4676V27.4958V27.5239V27.5521V27.5802V27.6083V27.6365V27.6646V27.6928V27.7209V27.749V27.7772V27.8053V27.8335V27.8616V27.8897V27.9179V27.946V27.9742V28.0023V28.0305V28.0586V28.0867V28.1149V28.143V28.1712V28.1993V28.2274V28.2556V28.2837V28.3119V28.34V28.3681V28.3963V28.4244V28.4526V28.4807V28.5089V28.537V28.5651V28.5933V28.6214V28.6496V28.6777V28.7058V28.734V28.7621V28.7903V28.8184V28.8465V28.8747V28.9028V28.931V28.9591V28.9872V29.0154V29.0435V29.0717V29.0998V29.128V29.1561V29.1842V29.2124V29.2405V29.2687V29.2968V29.3249V29.3531V29.3812V29.4094V29.4375V29.4656V29.4938V29.5219V29.5501V29.5782V29.6064V29.6345V29.6626V29.6908V29.7189V29.7471V29.7752V29.8033V29.8315V29.8596V29.8878V29.9159V29.944V29.9722V30.0003V30.0285V30.0566V30.0847V30.1129V30.141V30.1692V30.1973V30.2255V30.2536V30.2817V30.3099V30.338V30.3662V30.3943V30.4224V30.4506V30.4787V30.5069V30.535V30.5631V30.5913V30.6194V30.6476V30.6757V30.7039V30.732V30.7601V30.7883V30.8164V30.8446V30.8727V30.9008V30.929V30.9571V30.9853V31.0134V31.0415V31.0697V31.0978V31.126V31.1541V31.1823V31.2104V31.2385V31.2667V31.2948V31.323V31.3511V31.3792V31.4074V31.4355V31.4637V31.4918V31.5199V31.5481V31.5762V31.6044V31.6325V31.6606V31.6888V31.7169V31.7451V31.7732V31.8014V31.8295V31.8576V31.8858V31.9139V31.9421V31.9702V31.9983V32.0265V32.0546V32.0828C14.8609 32.1695 14.8731 32.2804 14.8819 32.3604C14.8848 32.387 14.8874 32.4102 14.889 32.4279L14.9584 33.1957L15.6311 32.8193C15.6818 32.7909 15.7419 32.7584 15.8014 32.7262C15.875 32.6864 15.9477 32.647 16.001 32.6164L16.0025 32.6156C17.5232 31.7353 19.0443 30.8582 20.5658 29.9844C20.1038 30.2828 19.6854 30.5506 19.4467 30.6875L19.446 30.6879C19.0189 30.9337 18.5908 31.1792 18.1624 31.4249C17.1243 32.0201 16.0839 32.6167 15.0502 33.2231C14.9302 33.293 14.8618 33.3047 14.8196 33.3047C14.7767 33.3047 14.706 33.2927 14.5816 33.2215C10.0075 30.5759 5.42963 27.9372 0.848102 25.3056L0.831563 25.2961L0.814349 25.2879C0.764251 25.264 0.722675 25.2257 0.69483 25.1783C0.666993 25.1308 0.654101 25.0763 0.657703 25.0216L0.658759 25.0055L0.658783 24.9895C0.666807 19.6953 0.666807 14.4011 0.658783 9.1069L0.658757 9.08966L0.657543 9.07245C0.65367 9.0176 0.666351 8.96278 0.69406 8.91503C0.721778 8.86727 0.763318 8.82871 0.813477 8.80448L0.829564 8.79672L0.845056 8.78782C5.43809 6.1501 10.0288 3.50571 14.6171 0.854642L14.6172 0.854714L14.625 0.850009C14.7237 0.790568 14.7781 0.784237 14.8088 0.784893C14.8439 0.785643 14.9066 0.797245 15.0189 0.862306L15.0195 0.862647C19.5951 3.50637 24.1731 6.14343 28.7535 8.77381L28.7699 8.78327L28.7871 8.79145C28.8368 8.81522 28.8781 8.85335 28.9055 8.90067C28.9329 8.94797 28.9453 9.00232 28.9412 9.05662L28.9399 9.07308L28.9397 9.08958C28.9294 10.1129 28.931 11.241 28.9326 12.3162C28.9328 12.468 28.933 12.6187 28.9332 12.768C28.9087 12.7623 28.8842 12.7568 28.8596 12.7514L28.112 9.84808ZM15.3027 33.6547C16.3343 33.0495 17.3713 32.4548 18.4086 31.8601C18.8376 31.6141 19.2667 31.368 19.6955 31.1212C19.9924 30.9509 20.5408 30.5961 21.0945 30.238C21.3743 30.057 21.6555 29.8751 21.9062 29.7158C21.7035 29.6479 21.5472 29.5584 21.438 29.4838L15.3027 33.6547Z" fill="#2F78BB" stroke="#2F78BB"/>
<path d="M27.137 30.2258C25.5236 30.2258 23.9464 29.7484 22.6049 28.8542C21.2634 27.9599 20.2178 26.6888 19.6003 25.2017C18.9829 23.7145 18.8214 22.0781 19.1361 20.4994C19.4509 18.9206 20.2278 17.4705 21.3687 16.3322C22.5096 15.194 23.9631 14.4189 25.5456 14.1049C27.128 13.7908 28.7682 13.952 30.2588 14.568C31.7495 15.184 33.0235 16.2272 33.9199 17.5655C34.8163 18.9039 35.2947 20.4775 35.2947 22.0871C35.2923 24.2449 34.4321 26.3136 32.9027 27.8394C31.3734 29.3652 29.2999 30.2234 27.137 30.2258ZM27.137 14.849C25.7021 14.849 24.2994 15.2735 23.1064 16.0688C21.9133 16.8642 20.9834 17.9946 20.4342 19.3172C19.8851 20.6398 19.7415 22.0952 20.0214 23.4992C20.3013 24.9033 20.9923 26.193 22.0069 27.2053C23.0216 28.2175 24.3143 28.9069 25.7217 29.1862C27.129 29.4655 28.5877 29.3221 29.9134 28.7743C31.2391 28.2264 32.3722 27.2987 33.1694 26.1084C33.9666 24.9181 34.3921 23.5187 34.3921 22.0871C34.3897 20.1682 33.6246 18.3285 32.2645 16.9716C30.9044 15.6147 29.0605 14.8514 27.137 14.849V14.849Z" fill="#2F78BB"/>
<path d="M31.9762 21.6418H27.5875V17.2643C27.5903 17.2041 27.5809 17.144 27.5598 17.0876C27.5387 17.0311 27.5063 16.9795 27.4646 16.9359C27.423 16.8923 27.3728 16.8576 27.3173 16.8339C27.2618 16.8102 27.2021 16.798 27.1417 16.798C27.0813 16.798 27.0215 16.8102 26.966 16.8339C26.9105 16.8576 26.8604 16.8923 26.8187 16.9359C26.777 16.9795 26.7446 17.0311 26.7235 17.0876C26.7024 17.144 26.693 17.2041 26.6959 17.2643V21.6418H22.3071C22.1888 21.6418 22.0753 21.6887 21.9916 21.7722C21.9079 21.8557 21.8608 21.969 21.8608 22.0871C21.8608 22.2052 21.9079 22.3184 21.9916 22.4019C22.0753 22.4854 22.1888 22.5323 22.3071 22.5323H26.6959V26.9098C26.693 26.97 26.7024 27.0301 26.7235 27.0866C26.7446 27.143 26.777 27.1946 26.8187 27.2382C26.8604 27.2818 26.9105 27.3165 26.966 27.3402C27.0215 27.364 27.0813 27.3762 27.1417 27.3762C27.2021 27.3762 27.2618 27.364 27.3173 27.3402C27.3728 27.3165 27.423 27.2818 27.4646 27.2382C27.5063 27.1946 27.5387 27.143 27.5598 27.0866C27.5809 27.0301 27.5903 26.97 27.5875 26.9098V22.5323H31.9762C32.0946 22.5323 32.2081 22.4854 32.2918 22.4019C32.3755 22.3184 32.4225 22.2052 32.4225 22.0871C32.4225 21.969 32.3755 21.8557 32.2918 21.7722C32.2081 21.6887 32.0946 21.6418 31.9762 21.6418Z" fill="#2F78BB" stroke="#2F78BB" stroke-miterlimit="10"/>
</svg>
