<svg width="37" height="37" viewBox="0 0 37 37" fill="none" xmlns="http://www.w3.org/2000/svg">
<path d="M18.4678 4.30842C10.6398 4.30842 4.29395 10.6543 4.29395 18.4823C4.29395 26.3103 10.6398 32.6561 18.4678 32.6561C26.2958 32.6561 32.6417 26.3103 32.6417 18.4823C32.6417 10.6543 26.2958 4.30842 18.4678 4.30842ZM0.750488 18.4823C0.750488 8.69727 8.68281 0.764954 18.4678 0.764954C28.2528 0.764954 36.1852 8.69727 36.1852 18.4823C36.1852 28.2673 28.2528 36.1996 18.4678 36.1996C8.68281 36.1996 0.750488 28.2673 0.750488 18.4823ZM18.4678 9.62362C19.4463 9.62362 20.2396 10.4169 20.2396 11.3954V16.7106H25.5548C26.5333 16.7106 27.3265 17.5038 27.3265 18.4823C27.3265 19.4608 26.5333 20.254 25.5548 20.254H20.2396V25.5692C20.2396 26.5477 19.4463 27.341 18.4678 27.341C17.4893 27.341 16.6961 26.5477 16.6961 25.5692V20.254H11.3809C10.4024 20.254 9.60915 19.4608 9.60915 18.4823C9.60915 17.5038 10.4024 16.7106 11.3809 16.7106H16.6961V11.3954C16.6961 10.4169 17.4893 9.62362 18.4678 9.62362Z" fill="#2F78BB"/>
</svg>
