<svg width="33" height="32" viewBox="0 0 33 32" fill="none" xmlns="http://www.w3.org/2000/svg">
<path d="M13.5757 3.4276C10.0915 3.4276 7.26707 6.25205 7.26707 9.73618C7.26707 13.2203 10.0915 16.0448 13.5757 16.0448C17.0598 16.0448 19.8842 13.2203 19.8842 9.73618C19.8842 6.25205 17.0598 3.4276 13.5757 3.4276ZM4.11279 9.73618C4.11279 4.50999 8.34945 0.273315 13.5757 0.273315C18.8018 0.273315 23.0385 4.50999 23.0385 9.73618C23.0385 14.9624 18.8018 19.199 13.5757 19.199C8.34945 19.199 4.11279 14.9624 4.11279 9.73618ZM27.77 14.4676C28.641 14.4676 29.3471 15.1737 29.3471 16.0448V17.6219H30.9242C31.7953 17.6219 32.5014 18.328 32.5014 19.199C32.5014 20.0701 31.7953 20.7762 30.9242 20.7762H29.3471V22.3533C29.3471 23.2244 28.641 23.9305 27.77 23.9305C26.8989 23.9305 26.1928 23.2244 26.1928 22.3533V20.7762H24.6157C23.7446 20.7762 23.0385 20.0701 23.0385 19.199C23.0385 18.328 23.7446 17.6219 24.6157 17.6219H26.1928V16.0448C26.1928 15.1737 26.8989 14.4676 27.77 14.4676ZM8.05565 25.5076C6.0693 25.5076 4.11279 27.4216 4.11279 30.2391C4.11279 31.1101 3.40667 31.8162 2.53564 31.8162C1.66461 31.8162 0.958496 31.1101 0.958496 30.2391C0.958496 26.0883 3.94477 22.3533 8.05565 22.3533H19.0957C23.2065 22.3533 26.1928 26.0883 26.1928 30.2391C26.1928 31.1101 25.4867 31.8162 24.6157 31.8162C23.7446 31.8162 23.0385 31.1101 23.0385 30.2391C23.0385 27.4216 21.082 25.5076 19.0957 25.5076H8.05565Z" fill="#2F78BB"/>
</svg>
